<svg width="80" height="80" viewBox="0 0 80 80" fill="none" xmlns="http://www.w3.org/2000/svg">
<g clip-path="url(#clip0_31_442)">
<path d="M38.76 0.329194C39.1377 0.113468 39.5651 0 40 0C40.4349 0 40.8623 0.113468 41.24 0.329194L59.99 11.0442C60.3726 11.2628 60.6907 11.5786 60.912 11.9597C61.1332 12.3407 61.2499 12.7735 61.25 13.2142V33.1892L78.74 43.1892C79.1212 43.4069 79.4383 43.7212 79.6595 44.1003C79.8807 44.4795 79.9981 44.9102 80 45.3492V66.7792C79.9999 67.2199 79.8832 67.6526 79.662 68.0337C79.4407 68.4148 79.1226 68.7306 78.74 68.9492L59.99 79.6642C59.6123 79.8799 59.1849 79.9934 58.75 79.9934C58.3151 79.9934 57.8877 79.8799 57.51 79.6642L40 69.6642L22.49 79.6692C22.1123 79.8849 21.6849 79.9984 21.25 79.9984C20.8151 79.9984 20.3877 79.8849 20.01 79.6692L1.26 68.9542C0.877365 68.7356 0.559299 68.4198 0.338028 68.0387C0.116756 67.6576 0.000142135 67.2249 0 66.7842L0 45.3542C0.000142135 44.9135 0.116756 44.4807 0.338028 44.0997C0.559299 43.7186 0.877365 43.4028 1.26 43.1842L18.75 33.1892V13.2142C18.7501 12.7735 18.8668 12.3407 19.088 11.9597C19.3093 11.5786 19.6274 11.2628 20.01 11.0442L38.76 0.329194ZM21.25 37.5192L7.54 45.3542L21.25 53.1892L34.96 45.3542L21.25 37.5192ZM37.5 49.6642L23.75 57.5192V73.1892L37.5 65.3342V49.6642ZM42.5 65.3342L56.25 73.1892V57.5192L42.5 49.6642V65.3342ZM45.04 45.3542L58.75 53.1892L72.46 45.3542L58.75 37.5192L45.04 45.3542ZM56.25 33.1892V17.5192L42.5 25.3792V41.0492L56.25 33.1892ZM37.5 41.0492V25.3792L23.75 17.5192V33.1892L37.5 41.0492ZM26.29 13.2142L40 21.0492L53.71 13.2142L40 5.37919L26.29 13.2142ZM75 49.6642L61.25 57.5192V73.1892L75 65.3342V49.6642ZM18.75 73.1892V57.5192L5 49.6642V65.3342L18.75 73.1892Z" fill="#219653"/>
</g>
<defs>
<clipPath id="clip0_31_442">
<rect width="80" height="80" fill="white"/>
</clipPath>
</defs>
</svg>
