<svg width="90" height="85" viewBox="0 0 90 85" fill="none" xmlns="http://www.w3.org/2000/svg">
<path d="M16.7062 2.59375C17.2344 1.97632 17.89 1.48062 18.6279 1.14076C19.3659 0.800903 20.1688 0.624947 20.9813 0.625H69.0188C69.8312 0.624947 70.6341 0.800903 71.3721 1.14076C72.11 1.48062 72.7656 1.97632 73.2937 2.59375L87.9694 19.7162C89.2797 21.2453 89.9999 23.1926 90 25.2062V26.6406C90.0003 29.4249 89.1307 32.1396 87.5127 34.4055C85.8947 36.6714 83.6093 38.3751 80.9757 39.2786C78.3421 40.182 75.492 40.2401 72.8239 39.4446C70.1557 38.6492 67.8027 37.04 66.0938 34.8419C64.8458 36.4493 63.2465 37.7499 61.4184 38.6439C59.5903 39.538 57.5819 40.0019 55.5469 40C53.5118 40.0023 51.5032 39.5386 49.675 38.6445C47.8469 37.7504 46.2477 36.4496 45 34.8419C43.7523 36.4496 42.1531 37.7504 40.325 38.6445C38.4968 39.5386 36.4882 40.0023 34.4531 40C32.418 40.0023 30.4094 39.5386 28.5813 38.6445C26.7531 37.7504 25.1539 36.4496 23.9062 34.8419C22.1973 37.04 19.8443 38.6492 17.1761 39.4446C14.508 40.2401 11.6579 40.182 9.02432 39.2786C6.39075 38.3751 4.10525 36.6714 2.48728 34.4055C0.869298 32.1396 -0.000307117 29.4249 8.1363e-08 26.6406V25.2062C7.09174e-05 23.1926 0.720318 21.2453 2.03063 19.7162L16.7119 2.58812L16.7062 2.59375ZM26.7188 26.6406C26.7188 28.6919 27.5336 30.6592 28.9841 32.1097C30.4346 33.5601 32.4018 34.375 34.4531 34.375C36.5044 34.375 38.4717 33.5601 39.9222 32.1097C41.3726 30.6592 42.1875 28.6919 42.1875 26.6406C42.1875 25.8947 42.4838 25.1793 43.0113 24.6519C43.5387 24.1244 44.2541 23.8281 45 23.8281C45.7459 23.8281 46.4613 24.1244 46.9887 24.6519C47.5162 25.1793 47.8125 25.8947 47.8125 26.6406C47.8125 28.6919 48.6274 30.6592 50.0778 32.1097C51.5283 33.5601 53.4956 34.375 55.5469 34.375C57.5982 34.375 59.5654 33.5601 61.0159 32.1097C62.4664 30.6592 63.2812 28.6919 63.2812 26.6406C63.2812 25.8947 63.5776 25.1793 64.105 24.6519C64.6325 24.1244 65.3478 23.8281 66.0938 23.8281C66.8397 23.8281 67.555 24.1244 68.0825 24.6519C68.6099 25.1793 68.9062 25.8947 68.9062 26.6406C68.9062 28.6919 69.7211 30.6592 71.1716 32.1097C72.6221 33.5601 74.5893 34.375 76.6406 34.375C78.6919 34.375 80.6592 33.5601 82.1097 32.1097C83.5601 30.6592 84.375 28.6919 84.375 26.6406V25.2062C84.3751 24.5359 84.1357 23.8876 83.7 23.3781L69.0188 6.25H20.9813L6.3 23.3781C5.86433 23.8876 5.62495 24.5359 5.625 25.2062V26.6406C5.625 28.6919 6.43987 30.6592 7.89035 32.1097C9.34082 33.5601 11.3081 34.375 13.3594 34.375C15.4107 34.375 17.3779 33.5601 18.8284 32.1097C20.2789 30.6592 21.0938 28.6919 21.0938 26.6406C21.0938 25.8947 21.3901 25.1793 21.9175 24.6519C22.445 24.1244 23.1603 23.8281 23.9062 23.8281C24.6522 23.8281 25.3675 24.1244 25.895 24.6519C26.4224 25.1793 26.7188 25.8947 26.7188 26.6406ZM8.4375 42.8125C9.18342 42.8125 9.89879 43.1088 10.4262 43.6363C10.9537 44.1637 11.25 44.8791 11.25 45.625V79.375H16.875V51.25C16.875 49.7582 17.4676 48.3274 18.5225 47.2725C19.5774 46.2176 21.0082 45.625 22.5 45.625H39.375C40.8668 45.625 42.2976 46.2176 43.3525 47.2725C44.4074 48.3274 45 49.7582 45 51.25V79.375H78.75V45.625C78.75 44.8791 79.0463 44.1637 79.5738 43.6363C80.1012 43.1088 80.8166 42.8125 81.5625 42.8125C82.3084 42.8125 83.0238 43.1088 83.5512 43.6363C84.0787 44.1637 84.375 44.8791 84.375 45.625V79.375H87.1875C87.9334 79.375 88.6488 79.6713 89.1762 80.1988C89.7037 80.7262 90 81.4416 90 82.1875C90 82.9334 89.7037 83.6488 89.1762 84.1762C88.6488 84.7037 87.9334 85 87.1875 85H2.8125C2.06658 85 1.35121 84.7037 0.823762 84.1762C0.296316 83.6488 8.1363e-08 82.9334 8.1363e-08 82.1875C8.1363e-08 81.4416 0.296316 80.7262 0.823762 80.1988C1.35121 79.6713 2.06658 79.375 2.8125 79.375H5.625V45.625C5.625 44.8791 5.92132 44.1637 6.44876 43.6363C6.97621 43.1088 7.69158 42.8125 8.4375 42.8125ZM22.5 79.375H39.375V51.25H22.5V79.375ZM50.625 51.25C50.625 49.7582 51.2176 48.3274 52.2725 47.2725C53.3274 46.2176 54.7582 45.625 56.25 45.625H67.5C68.9918 45.625 70.4226 46.2176 71.4775 47.2725C72.5324 48.3274 73.125 49.7582 73.125 51.25V68.125C73.125 69.6168 72.5324 71.0476 71.4775 72.1025C70.4226 73.1574 68.9918 73.75 67.5 73.75H56.25C54.7582 73.75 53.3274 73.1574 52.2725 72.1025C51.2176 71.0476 50.625 69.6168 50.625 68.125V51.25ZM67.5 51.25H56.25V68.125H67.5V51.25Z" fill="#219653"/>
</svg>
