<svg width="90" height="91" viewBox="0 0 90 91" fill="none" xmlns="http://www.w3.org/2000/svg">
<path d="M66.0489 58.5545C71.4956 51.1221 73.9351 41.9072 72.8794 32.7534C71.8237 23.5996 67.3506 15.182 60.3551 9.18457C53.3596 3.18714 44.3575 0.0522318 35.1499 0.407018C25.9422 0.761805 17.2081 4.58012 10.6948 11.0981C4.18152 17.616 0.369452 26.3529 0.0212539 35.5608C-0.326944 44.7687 2.81441 53.7685 8.81684 60.7597C14.8193 67.7509 23.2401 72.218 32.3946 73.2671C41.5492 74.3163 50.7623 71.8702 58.1908 66.4182H58.1852C58.3539 66.6432 58.5339 66.857 58.7364 67.0651L80.3927 88.7213C81.4474 89.7768 82.8782 90.3701 84.3704 90.3706C85.8625 90.3711 87.2937 89.7789 88.3492 88.7242C89.4047 87.6694 89.998 86.2386 89.9985 84.7465C89.999 83.2543 89.4068 81.8231 88.352 80.7676L66.6958 59.1113C66.4947 58.9078 66.2784 58.7253 66.0489 58.5545ZM67.5002 36.932C67.5002 40.9947 66.6999 45.0177 65.1452 48.7712C63.5904 52.5247 61.3116 55.9353 58.4388 58.8081C55.566 61.6809 52.1554 63.9597 48.4019 65.5145C44.6484 67.0692 40.6254 67.8695 36.5627 67.8695C32.4999 67.8695 28.4769 67.0692 24.7234 65.5145C20.9699 63.9597 17.5594 61.6809 14.6866 58.8081C11.8137 55.9353 9.5349 52.5247 7.98014 48.7712C6.42539 45.0177 5.62517 40.9947 5.62517 36.932C5.62517 28.7268 8.88465 20.8578 14.6866 15.0558C20.4885 9.25394 28.3575 5.99446 36.5627 5.99446C44.7678 5.99446 52.6369 9.25394 58.4388 15.0558C64.2407 20.8578 67.5002 28.7268 67.5002 36.932Z" fill="#219653"/>
</svg>
